<svg width="20" height="20" viewBox="0 0 20 20" fill="none" xmlns="http://www.w3.org/2000/svg"><path fill-rule="evenodd" clip-rule="evenodd" d="M5.5 7C3.84315 7 2.5 8.34315 2.5 10C2.5 11.6569 3.84315 13 5.5 13C7.00402 13 8.19458 11.7968 9.15577 10C8.19458 8.20315 7.00402 7 5.5 7ZM10 8.47207C8.98771 6.88236 7.5439 5.5 5.5 5.5C3.01472 5.5 1 7.51472 1 10C1 12.4853 3.01472 14.5 5.5 14.5C7.5439 14.5 8.98771 13.1176 10 11.5279C11.0123 13.1176 12.4561 14.5 14.5 14.5C16.9853 14.5 19 12.4853 19 10C19 7.51472 16.9853 5.5 14.5 5.5C12.4561 5.5 11.0123 6.88236 10 8.47207ZM10.8442 10C11.8054 11.7968 12.996 13 14.5 13C16.1569 13 17.5 11.6569 17.5 10C17.5 8.34315 16.1569 7 14.5 7C12.996 7 11.8054 8.20315 10.8442 10Z" fill="currentColor"></path></svg>