<svg width="25" height="25" viewBox="0 0 25 25" fill="none" xmlns="http://www.w3.org/2000/svg">
<path d="M5 11C5 8.79086 6.79086 7 9 7V7V17C9 18.1046 8.10457 19 7 19V19C5.89543 19 5 18.1046 5 17V11Z" fill="#12C971"/>
<path d="M16 7V7C18.2091 7 20 8.79086 20 11V17C20 18.1046 19.1046 19 18 19V19C16.8954 19 16 18.1046 16 17V7Z" fill="#12C971"/>
<rect x="15.9789" y="7" width="4" height="7" transform="rotate(45.338 15.9789 7)" fill="#12C971"/>
<path d="M9.04315 12.8523C7.41997 11.2483 7.40445 8.63215 9.00847 7.00898V7.00898L15.3162 13.2422L12.4118 16.1813L9.04315 12.8523Z" fill="#12C971"/>
</svg>
